<mxfile host="www.draw.io" modified="2019-10-16T10:21:50.619Z" agent="Mozilla/5.0 (X11; Linux x86_64) AppleWebKit/537.36 (KHTML, like Gecko) Chrome/73.0.3683.75 Safari/537.36" etag="svVlSKGb1rcbJzFcbUSO" version="12.1.1" type="github" pages="1">
  <diagram id="EdAOTdUpAiUYNW-F2-T8" name="Page-1">
    <mxGraphModel dx="868" dy="467" grid="1" gridSize="10" guides="1" tooltips="1" connect="1" arrows="1" fold="1" page="1" pageScale="1" pageWidth="827" pageHeight="1169" math="0" shadow="0">
      <root>
        <mxCell id="0"/>
        <mxCell id="1" parent="0"/>
        <mxCell id="xlTgU6gEici19xFDkvJ_-10" style="edgeStyle=orthogonalEdgeStyle;rounded=0;orthogonalLoop=1;jettySize=auto;html=1;exitX=0.25;exitY=1;exitDx=0;exitDy=0;entryX=0.25;entryY=0;entryDx=0;entryDy=0;fontStyle=1" parent="1" source="xlTgU6gEici19xFDkvJ_-1" edge="1">
          <mxGeometry relative="1" as="geometry">
            <mxPoint x="110" y="240" as="targetPoint"/>
          </mxGeometry>
        </mxCell>
        <mxCell id="xlTgU6gEici19xFDkvJ_-1" value="Istruction&lt;br&gt;Cache" style="rounded=0;whiteSpace=wrap;html=1;fontStyle=1;strokeWidth=2;" parent="1" vertex="1">
          <mxGeometry x="80" y="40" width="120" height="120" as="geometry"/>
        </mxCell>
        <mxCell id="xlTgU6gEici19xFDkvJ_-11" style="edgeStyle=orthogonalEdgeStyle;rounded=0;orthogonalLoop=1;jettySize=auto;html=1;exitX=0.75;exitY=0;exitDx=0;exitDy=0;entryX=0.75;entryY=1;entryDx=0;entryDy=0;fontStyle=1" parent="1" target="xlTgU6gEici19xFDkvJ_-1" edge="1">
          <mxGeometry relative="1" as="geometry">
            <mxPoint x="170" y="240" as="sourcePoint"/>
          </mxGeometry>
        </mxCell>
        <mxCell id="xlTgU6gEici19xFDkvJ_-9" style="edgeStyle=orthogonalEdgeStyle;rounded=0;orthogonalLoop=1;jettySize=auto;html=1;exitX=0.995;exitY=0.005;exitDx=0;exitDy=0;entryX=0.75;entryY=1;entryDx=0;entryDy=0;exitPerimeter=0;" parent="1" edge="1">
          <mxGeometry relative="1" as="geometry">
            <mxPoint x="610" y="240" as="sourcePoint"/>
            <mxPoint x="580.0970873786407" y="160.06796116504853" as="targetPoint"/>
            <Array as="points">
              <mxPoint x="610" y="200"/>
              <mxPoint x="580" y="200"/>
            </Array>
          </mxGeometry>
        </mxCell>
        <mxCell id="xlTgU6gEici19xFDkvJ_-8" style="edgeStyle=orthogonalEdgeStyle;rounded=0;orthogonalLoop=1;jettySize=auto;html=1;exitX=0.25;exitY=1;exitDx=0;exitDy=0;entryX=0.5;entryY=0;entryDx=0;entryDy=0;" parent="1" source="xlTgU6gEici19xFDkvJ_-6" edge="1">
          <mxGeometry relative="1" as="geometry">
            <mxPoint x="490" y="240" as="targetPoint"/>
          </mxGeometry>
        </mxCell>
        <mxCell id="xlTgU6gEici19xFDkvJ_-6" value="Data&lt;br&gt;Cache" style="rounded=0;whiteSpace=wrap;html=1;fontStyle=1;strokeWidth=2;" parent="1" vertex="1">
          <mxGeometry x="491" y="40" width="120" height="120" as="geometry"/>
        </mxCell>
        <mxCell id="qTA8AELr05yfK3GaFoeh-131" style="edgeStyle=orthogonalEdgeStyle;rounded=0;orthogonalLoop=1;jettySize=auto;html=1;exitX=0.25;exitY=1;exitDx=0;exitDy=0;entryX=0.25;entryY=0;entryDx=0;entryDy=0;fontStyle=1" edge="1" parent="1" source="qTA8AELr05yfK3GaFoeh-132" target="qTA8AELr05yfK3GaFoeh-135">
          <mxGeometry relative="1" as="geometry"/>
        </mxCell>
        <mxCell id="qTA8AELr05yfK3GaFoeh-132" value="Fetch1" style="rounded=0;whiteSpace=wrap;html=1;fontStyle=1;strokeWidth=2;" vertex="1" parent="1">
          <mxGeometry x="80" y="240" width="120" height="60" as="geometry"/>
        </mxCell>
        <mxCell id="qTA8AELr05yfK3GaFoeh-133" style="edgeStyle=orthogonalEdgeStyle;rounded=0;orthogonalLoop=1;jettySize=auto;html=1;exitX=0.75;exitY=0;exitDx=0;exitDy=0;fontStyle=1;entryX=0.75;entryY=1;entryDx=0;entryDy=0;" edge="1" parent="1" source="qTA8AELr05yfK3GaFoeh-135" target="qTA8AELr05yfK3GaFoeh-132">
          <mxGeometry relative="1" as="geometry">
            <mxPoint x="90" y="400" as="targetPoint"/>
          </mxGeometry>
        </mxCell>
        <mxCell id="qTA8AELr05yfK3GaFoeh-134" style="edgeStyle=orthogonalEdgeStyle;rounded=0;orthogonalLoop=1;jettySize=auto;html=1;exitX=0.5;exitY=1;exitDx=0;exitDy=0;entryX=0.5;entryY=0;entryDx=0;entryDy=0;fontStyle=1" edge="1" parent="1" source="qTA8AELr05yfK3GaFoeh-135" target="qTA8AELr05yfK3GaFoeh-137">
          <mxGeometry relative="1" as="geometry"/>
        </mxCell>
        <mxCell id="qTA8AELr05yfK3GaFoeh-135" value="Fetch2" style="rounded=0;whiteSpace=wrap;html=1;fontStyle=1;strokeWidth=2;" vertex="1" parent="1">
          <mxGeometry x="80" y="370" width="120" height="60" as="geometry"/>
        </mxCell>
        <mxCell id="qTA8AELr05yfK3GaFoeh-136" style="edgeStyle=orthogonalEdgeStyle;rounded=0;orthogonalLoop=1;jettySize=auto;html=1;exitX=1;exitY=0.5;exitDx=0;exitDy=0;entryX=0;entryY=0.25;entryDx=0;entryDy=0;" edge="1" parent="1" source="qTA8AELr05yfK3GaFoeh-137" target="qTA8AELr05yfK3GaFoeh-139">
          <mxGeometry relative="1" as="geometry">
            <mxPoint x="270" y="348" as="targetPoint"/>
            <Array as="points">
              <mxPoint x="230" y="530"/>
              <mxPoint x="230" y="363"/>
            </Array>
          </mxGeometry>
        </mxCell>
        <mxCell id="qTA8AELr05yfK3GaFoeh-137" value="&lt;span&gt;Decode&lt;/span&gt;" style="rounded=0;whiteSpace=wrap;html=1;fontStyle=1;strokeWidth=2;" vertex="1" parent="1">
          <mxGeometry x="80" y="499.5" width="120" height="60" as="geometry"/>
        </mxCell>
        <mxCell id="qTA8AELr05yfK3GaFoeh-138" style="edgeStyle=orthogonalEdgeStyle;rounded=0;orthogonalLoop=1;jettySize=auto;html=1;entryX=0;entryY=0.5;entryDx=0;entryDy=0;exitX=0;exitY=0.75;exitDx=0;exitDy=0;" edge="1" parent="1" source="qTA8AELr05yfK3GaFoeh-139" target="qTA8AELr05yfK3GaFoeh-132">
          <mxGeometry relative="1" as="geometry">
            <Array as="points">
              <mxPoint x="40" y="608"/>
              <mxPoint x="40" y="270"/>
            </Array>
            <mxPoint x="270" y="563" as="sourcePoint"/>
          </mxGeometry>
        </mxCell>
        <mxCell id="qTA8AELr05yfK3GaFoeh-139" value="&amp;nbsp; &amp;nbsp; &amp;nbsp; &amp;nbsp; &amp;nbsp; &lt;br&gt;&amp;nbsp; &amp;nbsp; &amp;nbsp; &amp;nbsp; &amp;nbsp; &amp;nbsp; &amp;nbsp; &amp;nbsp; &amp;nbsp; &lt;b&gt;Execute&lt;/b&gt;" style="rounded=0;whiteSpace=wrap;html=1;verticalAlign=top;labelPosition=center;verticalLabelPosition=middle;align=left;strokeWidth=2;" vertex="1" parent="1">
          <mxGeometry x="250" y="240" width="460" height="490" as="geometry"/>
        </mxCell>
        <mxCell id="qTA8AELr05yfK3GaFoeh-140" value="C&lt;br&gt;o&lt;br&gt;m&lt;br&gt;m&lt;br&gt;i&lt;br&gt;t" style="rounded=0;whiteSpace=wrap;html=1;align=center;strokeWidth=1;" vertex="1" parent="1">
          <mxGeometry x="650" y="360" width="20" height="267" as="geometry"/>
        </mxCell>
        <mxCell id="qTA8AELr05yfK3GaFoeh-141" value="Scoreboard" style="rounded=0;whiteSpace=wrap;html=1;strokeWidth=1;" vertex="1" parent="1">
          <mxGeometry x="331" y="650" width="270" height="30" as="geometry"/>
        </mxCell>
        <mxCell id="qTA8AELr05yfK3GaFoeh-142" value="Int&amp;nbsp;" style="rounded=0;whiteSpace=wrap;html=1;align=right;labelPosition=left;verticalLabelPosition=middle;verticalAlign=middle;strokeWidth=2;" vertex="1" parent="1">
          <mxGeometry x="510" y="436.5588235294117" width="90" height="30" as="geometry"/>
        </mxCell>
        <mxCell id="qTA8AELr05yfK3GaFoeh-143" value="" style="endArrow=none;html=1;exitX=0.338;exitY=0.997;exitDx=0;exitDy=0;exitPerimeter=0;entryX=0.342;entryY=0.003;entryDx=0;entryDy=0;entryPerimeter=0;strokeWidth=2;" edge="1" parent="1" source="qTA8AELr05yfK3GaFoeh-142" target="qTA8AELr05yfK3GaFoeh-142">
          <mxGeometry width="50" height="50" relative="1" as="geometry">
            <mxPoint x="-20" y="539.5588235294117" as="sourcePoint"/>
            <mxPoint x="381" y="359.5588235294117" as="targetPoint"/>
          </mxGeometry>
        </mxCell>
        <mxCell id="qTA8AELr05yfK3GaFoeh-144" value="" style="endArrow=none;html=1;exitX=0.668;exitY=1.01;exitDx=0;exitDy=0;exitPerimeter=0;entryX=0.672;entryY=-0.003;entryDx=0;entryDy=0;entryPerimeter=0;strokeWidth=2;" edge="1" parent="1" source="qTA8AELr05yfK3GaFoeh-142" target="qTA8AELr05yfK3GaFoeh-142">
          <mxGeometry width="50" height="50" relative="1" as="geometry">
            <mxPoint x="419.79999999999995" y="419.9388235294118" as="sourcePoint"/>
            <mxPoint x="420" y="359.5588235294117" as="targetPoint"/>
          </mxGeometry>
        </mxCell>
        <mxCell id="qTA8AELr05yfK3GaFoeh-145" value="Mul" style="rounded=0;whiteSpace=wrap;html=1;align=right;labelPosition=left;verticalLabelPosition=middle;verticalAlign=middle;strokeWidth=2;" vertex="1" parent="1">
          <mxGeometry x="510" y="475.5588235294117" width="90" height="30" as="geometry"/>
        </mxCell>
        <mxCell id="qTA8AELr05yfK3GaFoeh-146" value="" style="endArrow=none;html=1;exitX=0.338;exitY=0.997;exitDx=0;exitDy=0;exitPerimeter=0;entryX=0.342;entryY=0.003;entryDx=0;entryDy=0;entryPerimeter=0;strokeWidth=2;" edge="1" parent="1" source="qTA8AELr05yfK3GaFoeh-145" target="qTA8AELr05yfK3GaFoeh-145">
          <mxGeometry width="50" height="50" relative="1" as="geometry">
            <mxPoint x="-20" y="579.5588235294117" as="sourcePoint"/>
            <mxPoint x="381" y="399.5588235294117" as="targetPoint"/>
          </mxGeometry>
        </mxCell>
        <mxCell id="qTA8AELr05yfK3GaFoeh-147" value="" style="endArrow=none;html=1;exitX=0.668;exitY=1.01;exitDx=0;exitDy=0;exitPerimeter=0;entryX=0.672;entryY=-0.003;entryDx=0;entryDy=0;entryPerimeter=0;strokeWidth=2;" edge="1" parent="1" source="qTA8AELr05yfK3GaFoeh-145" target="qTA8AELr05yfK3GaFoeh-145">
          <mxGeometry width="50" height="50" relative="1" as="geometry">
            <mxPoint x="419.79999999999995" y="459.9388235294118" as="sourcePoint"/>
            <mxPoint x="420" y="399.5588235294117" as="targetPoint"/>
          </mxGeometry>
        </mxCell>
        <mxCell id="qTA8AELr05yfK3GaFoeh-148" value="Div" style="rounded=0;whiteSpace=wrap;html=1;align=right;labelPosition=left;verticalLabelPosition=middle;verticalAlign=middle;strokeWidth=2;" vertex="1" parent="1">
          <mxGeometry x="330" y="597.0588235294117" width="90" height="30" as="geometry"/>
        </mxCell>
        <mxCell id="qTA8AELr05yfK3GaFoeh-149" value="" style="endArrow=none;html=1;exitX=0.338;exitY=0.997;exitDx=0;exitDy=0;exitPerimeter=0;entryX=0.342;entryY=0.003;entryDx=0;entryDy=0;entryPerimeter=0;strokeWidth=2;" edge="1" parent="1" source="qTA8AELr05yfK3GaFoeh-148" target="qTA8AELr05yfK3GaFoeh-148">
          <mxGeometry width="50" height="50" relative="1" as="geometry">
            <mxPoint x="-20" y="619.5588235294117" as="sourcePoint"/>
            <mxPoint x="381" y="439.5588235294117" as="targetPoint"/>
          </mxGeometry>
        </mxCell>
        <mxCell id="qTA8AELr05yfK3GaFoeh-150" value="" style="endArrow=none;html=1;exitX=0.668;exitY=1.01;exitDx=0;exitDy=0;exitPerimeter=0;entryX=0.672;entryY=-0.003;entryDx=0;entryDy=0;entryPerimeter=0;strokeWidth=2;" edge="1" parent="1" source="qTA8AELr05yfK3GaFoeh-148" target="qTA8AELr05yfK3GaFoeh-148">
          <mxGeometry width="50" height="50" relative="1" as="geometry">
            <mxPoint x="419.79999999999995" y="499.9388235294118" as="sourcePoint"/>
            <mxPoint x="420" y="439.5588235294117" as="targetPoint"/>
          </mxGeometry>
        </mxCell>
        <mxCell id="qTA8AELr05yfK3GaFoeh-151" value="" style="rounded=0;whiteSpace=wrap;html=1;align=right;labelPosition=left;verticalLabelPosition=middle;verticalAlign=middle;strokeWidth=2;" vertex="1" parent="1">
          <mxGeometry x="420" y="597.0588235294117" width="90" height="30" as="geometry"/>
        </mxCell>
        <mxCell id="qTA8AELr05yfK3GaFoeh-152" value="" style="endArrow=none;html=1;exitX=0.338;exitY=0.997;exitDx=0;exitDy=0;exitPerimeter=0;entryX=0.342;entryY=0.003;entryDx=0;entryDy=0;entryPerimeter=0;strokeWidth=2;" edge="1" parent="1" source="qTA8AELr05yfK3GaFoeh-151" target="qTA8AELr05yfK3GaFoeh-151">
          <mxGeometry width="50" height="50" relative="1" as="geometry">
            <mxPoint x="-325" y="659.5588235294117" as="sourcePoint"/>
            <mxPoint x="76" y="479.5588235294117" as="targetPoint"/>
          </mxGeometry>
        </mxCell>
        <mxCell id="qTA8AELr05yfK3GaFoeh-153" value="" style="endArrow=none;html=1;exitX=0.668;exitY=1.01;exitDx=0;exitDy=0;exitPerimeter=0;entryX=0.672;entryY=-0.003;entryDx=0;entryDy=0;entryPerimeter=0;strokeWidth=2;" edge="1" parent="1" source="qTA8AELr05yfK3GaFoeh-151" target="qTA8AELr05yfK3GaFoeh-151">
          <mxGeometry width="50" height="50" relative="1" as="geometry">
            <mxPoint x="114.79999999999995" y="539.9388235294118" as="sourcePoint"/>
            <mxPoint x="115" y="479.5588235294117" as="targetPoint"/>
          </mxGeometry>
        </mxCell>
        <mxCell id="qTA8AELr05yfK3GaFoeh-154" value="" style="rounded=0;whiteSpace=wrap;html=1;align=right;labelPosition=left;verticalLabelPosition=middle;verticalAlign=middle;strokeWidth=2;" vertex="1" parent="1">
          <mxGeometry x="510" y="597.0588235294117" width="90" height="30" as="geometry"/>
        </mxCell>
        <mxCell id="qTA8AELr05yfK3GaFoeh-155" value="" style="endArrow=none;html=1;exitX=0.338;exitY=0.997;exitDx=0;exitDy=0;exitPerimeter=0;entryX=0.342;entryY=0.003;entryDx=0;entryDy=0;entryPerimeter=0;strokeWidth=2;" edge="1" parent="1" source="qTA8AELr05yfK3GaFoeh-154" target="qTA8AELr05yfK3GaFoeh-154">
          <mxGeometry width="50" height="50" relative="1" as="geometry">
            <mxPoint x="-315" y="669.5588235294117" as="sourcePoint"/>
            <mxPoint x="86" y="489.5588235294117" as="targetPoint"/>
          </mxGeometry>
        </mxCell>
        <mxCell id="qTA8AELr05yfK3GaFoeh-156" value="" style="endArrow=none;html=1;exitX=0.668;exitY=1.01;exitDx=0;exitDy=0;exitPerimeter=0;entryX=0.672;entryY=-0.003;entryDx=0;entryDy=0;entryPerimeter=0;strokeWidth=2;" edge="1" parent="1" source="qTA8AELr05yfK3GaFoeh-154" target="qTA8AELr05yfK3GaFoeh-154">
          <mxGeometry width="50" height="50" relative="1" as="geometry">
            <mxPoint x="124.79999999999995" y="549.9388235294118" as="sourcePoint"/>
            <mxPoint x="125" y="489.5588235294117" as="targetPoint"/>
          </mxGeometry>
        </mxCell>
        <mxCell id="qTA8AELr05yfK3GaFoeh-157" value="Float" style="rounded=0;whiteSpace=wrap;html=1;align=right;labelPosition=left;verticalLabelPosition=middle;verticalAlign=middle;strokeWidth=2;" vertex="1" parent="1">
          <mxGeometry x="420" y="555.5588235294117" width="90" height="30" as="geometry"/>
        </mxCell>
        <mxCell id="qTA8AELr05yfK3GaFoeh-158" value="" style="endArrow=none;html=1;exitX=0.338;exitY=0.997;exitDx=0;exitDy=0;exitPerimeter=0;entryX=0.342;entryY=0.003;entryDx=0;entryDy=0;entryPerimeter=0;strokeWidth=2;" edge="1" parent="1" source="qTA8AELr05yfK3GaFoeh-157" target="qTA8AELr05yfK3GaFoeh-157">
          <mxGeometry width="50" height="50" relative="1" as="geometry">
            <mxPoint x="-305" y="679.5588235294117" as="sourcePoint"/>
            <mxPoint x="96" y="499.5588235294117" as="targetPoint"/>
          </mxGeometry>
        </mxCell>
        <mxCell id="qTA8AELr05yfK3GaFoeh-159" value="" style="endArrow=none;html=1;exitX=0.668;exitY=1.01;exitDx=0;exitDy=0;exitPerimeter=0;entryX=0.672;entryY=-0.003;entryDx=0;entryDy=0;entryPerimeter=0;strokeWidth=2;" edge="1" parent="1" source="qTA8AELr05yfK3GaFoeh-157" target="qTA8AELr05yfK3GaFoeh-157">
          <mxGeometry width="50" height="50" relative="1" as="geometry">
            <mxPoint x="134.79999999999995" y="559.9388235294118" as="sourcePoint"/>
            <mxPoint x="135" y="499.5588235294117" as="targetPoint"/>
          </mxGeometry>
        </mxCell>
        <mxCell id="qTA8AELr05yfK3GaFoeh-160" value="" style="rounded=0;whiteSpace=wrap;html=1;align=right;labelPosition=left;verticalLabelPosition=middle;verticalAlign=middle;strokeWidth=2;" vertex="1" parent="1">
          <mxGeometry x="510" y="555.5588235294117" width="90" height="30" as="geometry"/>
        </mxCell>
        <mxCell id="qTA8AELr05yfK3GaFoeh-161" value="" style="endArrow=none;html=1;exitX=0.338;exitY=0.997;exitDx=0;exitDy=0;exitPerimeter=0;entryX=0.342;entryY=0.003;entryDx=0;entryDy=0;entryPerimeter=0;strokeWidth=2;" edge="1" parent="1" source="qTA8AELr05yfK3GaFoeh-160" target="qTA8AELr05yfK3GaFoeh-160">
          <mxGeometry width="50" height="50" relative="1" as="geometry">
            <mxPoint x="-295" y="689.5588235294117" as="sourcePoint"/>
            <mxPoint x="106" y="509.5588235294117" as="targetPoint"/>
          </mxGeometry>
        </mxCell>
        <mxCell id="qTA8AELr05yfK3GaFoeh-162" value="" style="endArrow=none;html=1;exitX=0.668;exitY=1.01;exitDx=0;exitDy=0;exitPerimeter=0;entryX=0.672;entryY=-0.003;entryDx=0;entryDy=0;entryPerimeter=0;strokeWidth=2;" edge="1" parent="1" source="qTA8AELr05yfK3GaFoeh-160" target="qTA8AELr05yfK3GaFoeh-160">
          <mxGeometry width="50" height="50" relative="1" as="geometry">
            <mxPoint x="144.79999999999995" y="569.9388235294118" as="sourcePoint"/>
            <mxPoint x="145" y="509.5588235294117" as="targetPoint"/>
          </mxGeometry>
        </mxCell>
        <mxCell id="qTA8AELr05yfK3GaFoeh-163" value="Mem" style="rounded=0;whiteSpace=wrap;html=1;align=right;labelPosition=left;verticalLabelPosition=middle;verticalAlign=middle;strokeWidth=2;" vertex="1" parent="1">
          <mxGeometry x="510" y="514.5588235294117" width="90" height="30" as="geometry"/>
        </mxCell>
        <mxCell id="qTA8AELr05yfK3GaFoeh-164" value="" style="endArrow=none;html=1;exitX=0.338;exitY=0.997;exitDx=0;exitDy=0;exitPerimeter=0;entryX=0.342;entryY=0.003;entryDx=0;entryDy=0;entryPerimeter=0;strokeWidth=2;" edge="1" parent="1" source="qTA8AELr05yfK3GaFoeh-163" target="qTA8AELr05yfK3GaFoeh-163">
          <mxGeometry width="50" height="50" relative="1" as="geometry">
            <mxPoint x="-20" y="697.5588235294117" as="sourcePoint"/>
            <mxPoint x="381" y="517.5588235294117" as="targetPoint"/>
          </mxGeometry>
        </mxCell>
        <mxCell id="qTA8AELr05yfK3GaFoeh-165" value="" style="endArrow=none;html=1;exitX=0.668;exitY=1.01;exitDx=0;exitDy=0;exitPerimeter=0;entryX=0.672;entryY=-0.003;entryDx=0;entryDy=0;entryPerimeter=0;strokeWidth=2;" edge="1" parent="1" source="qTA8AELr05yfK3GaFoeh-163" target="qTA8AELr05yfK3GaFoeh-163">
          <mxGeometry width="50" height="50" relative="1" as="geometry">
            <mxPoint x="419.79999999999995" y="577.9388235294118" as="sourcePoint"/>
            <mxPoint x="420" y="517.5588235294117" as="targetPoint"/>
          </mxGeometry>
        </mxCell>
        <mxCell id="qTA8AELr05yfK3GaFoeh-166" value="Misc" style="rounded=0;whiteSpace=wrap;html=1;align=right;labelPosition=left;verticalLabelPosition=middle;verticalAlign=middle;strokeWidth=2;" vertex="1" parent="1">
          <mxGeometry x="570" y="360.0588235294117" width="30" height="30" as="geometry"/>
        </mxCell>
        <mxCell id="qTA8AELr05yfK3GaFoeh-167" value="" style="rounded=0;whiteSpace=wrap;html=1;align=left;verticalAlign=top;labelPosition=right;verticalLabelPosition=middle;" vertex="1" parent="1">
          <mxGeometry x="610" y="240" width="30" height="60" as="geometry"/>
        </mxCell>
        <mxCell id="qTA8AELr05yfK3GaFoeh-168" value="" style="endArrow=none;html=1;entryX=0;entryY=0.5;entryDx=0;entryDy=0;exitX=1;exitY=0.5;exitDx=0;exitDy=0;" edge="1" parent="1" source="qTA8AELr05yfK3GaFoeh-167" target="qTA8AELr05yfK3GaFoeh-167">
          <mxGeometry width="50" height="50" relative="1" as="geometry">
            <mxPoint x="345" y="480" as="sourcePoint"/>
            <mxPoint x="395" y="430" as="targetPoint"/>
          </mxGeometry>
        </mxCell>
        <mxCell id="qTA8AELr05yfK3GaFoeh-169" value="" style="endArrow=none;html=1;entryX=0;entryY=0.75;entryDx=0;entryDy=0;exitX=1;exitY=0.75;exitDx=0;exitDy=0;" edge="1" parent="1" source="qTA8AELr05yfK3GaFoeh-167" target="qTA8AELr05yfK3GaFoeh-167">
          <mxGeometry width="50" height="50" relative="1" as="geometry">
            <mxPoint x="345" y="480" as="sourcePoint"/>
            <mxPoint x="395" y="430" as="targetPoint"/>
          </mxGeometry>
        </mxCell>
        <mxCell id="qTA8AELr05yfK3GaFoeh-170" value="Load&lt;br&gt;Req" style="rounded=0;whiteSpace=wrap;html=1;align=center;labelPosition=center;verticalLabelPosition=middle;verticalAlign=middle;" vertex="1" parent="1">
          <mxGeometry x="580" y="240" width="30" height="30" as="geometry"/>
        </mxCell>
        <mxCell id="qTA8AELr05yfK3GaFoeh-171" value="Store&lt;br&gt;Buf" style="text;html=1;strokeColor=none;fillColor=none;align=center;verticalAlign=middle;whiteSpace=wrap;rounded=0;" vertex="1" parent="1">
          <mxGeometry x="610" y="240" width="30" height="30" as="geometry"/>
        </mxCell>
        <mxCell id="qTA8AELr05yfK3GaFoeh-172" value="Input Buf" style="rounded=0;whiteSpace=wrap;html=1;align=center;labelPosition=center;verticalLabelPosition=bottom;verticalAlign=top;" vertex="1" parent="1">
          <mxGeometry x="290" y="360" width="40" height="80" as="geometry"/>
        </mxCell>
        <mxCell id="qTA8AELr05yfK3GaFoeh-173" value="" style="endArrow=none;html=1;entryX=0.5;entryY=0;entryDx=0;entryDy=0;exitX=0.5;exitY=1;exitDx=0;exitDy=0;" edge="1" parent="1" source="qTA8AELr05yfK3GaFoeh-172" target="qTA8AELr05yfK3GaFoeh-172">
          <mxGeometry width="50" height="50" relative="1" as="geometry">
            <mxPoint x="-30" y="730" as="sourcePoint"/>
            <mxPoint x="20" y="680" as="targetPoint"/>
          </mxGeometry>
        </mxCell>
        <mxCell id="qTA8AELr05yfK3GaFoeh-174" value="" style="endArrow=none;html=1;entryX=0.25;entryY=0;entryDx=0;entryDy=0;exitX=0.25;exitY=1;exitDx=0;exitDy=0;" edge="1" parent="1" source="qTA8AELr05yfK3GaFoeh-172" target="qTA8AELr05yfK3GaFoeh-172">
          <mxGeometry width="50" height="50" relative="1" as="geometry">
            <mxPoint x="-30" y="730" as="sourcePoint"/>
            <mxPoint x="20" y="680" as="targetPoint"/>
          </mxGeometry>
        </mxCell>
        <mxCell id="qTA8AELr05yfK3GaFoeh-175" value="" style="shape=loopLimit;whiteSpace=wrap;html=1;align=left;rotation=180;size=14;" vertex="1" parent="1">
          <mxGeometry x="400" y="260" width="60" height="60" as="geometry"/>
        </mxCell>
        <mxCell id="qTA8AELr05yfK3GaFoeh-176" value="Reg&lt;br&gt;File" style="text;html=1;strokeColor=none;fillColor=none;align=center;verticalAlign=middle;whiteSpace=wrap;rounded=0;" vertex="1" parent="1">
          <mxGeometry x="410" y="280" width="40" height="20" as="geometry"/>
        </mxCell>
        <mxCell id="qTA8AELr05yfK3GaFoeh-177" value="" style="endArrow=none;html=1;strokeColor=#CC0000;strokeWidth=3;exitX=0;exitY=0.25;exitDx=0;exitDy=0;entryX=0;entryY=0.25;entryDx=0;entryDy=0;" edge="1" parent="1" source="qTA8AELr05yfK3GaFoeh-172" target="qTA8AELr05yfK3GaFoeh-139">
          <mxGeometry width="50" height="50" relative="1" as="geometry">
            <mxPoint x="29" y="740" as="sourcePoint"/>
            <mxPoint x="269" y="360" as="targetPoint"/>
            <Array as="points">
              <mxPoint x="279" y="377"/>
              <mxPoint x="279" y="363"/>
            </Array>
          </mxGeometry>
        </mxCell>
        <mxCell id="qTA8AELr05yfK3GaFoeh-178" value="" style="endArrow=none;html=1;strokeColor=#CC0000;strokeWidth=3;entryX=0;entryY=0.25;entryDx=0;entryDy=0;exitX=0;exitY=0.25;exitDx=0;exitDy=0;" edge="1" parent="1" source="qTA8AELr05yfK3GaFoeh-181" target="qTA8AELr05yfK3GaFoeh-172">
          <mxGeometry width="50" height="50" relative="1" as="geometry">
            <mxPoint x="179" y="740" as="sourcePoint"/>
            <mxPoint x="229" y="690" as="targetPoint"/>
          </mxGeometry>
        </mxCell>
        <mxCell id="qTA8AELr05yfK3GaFoeh-179" value="" style="endArrow=none;dashed=1;html=1;strokeColor=#CC0000;strokeWidth=1;exitX=0;exitY=0.75;exitDx=0;exitDy=0;" edge="1" parent="1" source="qTA8AELr05yfK3GaFoeh-172">
          <mxGeometry width="50" height="50" relative="1" as="geometry">
            <mxPoint x="179" y="740" as="sourcePoint"/>
            <mxPoint x="279" y="360" as="targetPoint"/>
            <Array as="points">
              <mxPoint x="279" y="412"/>
            </Array>
          </mxGeometry>
        </mxCell>
        <mxCell id="qTA8AELr05yfK3GaFoeh-180" value="" style="endArrow=none;dashed=1;html=1;strokeColor=#CC0000;strokeWidth=1;exitX=0;exitY=0.75;exitDx=0;exitDy=0;entryX=0;entryY=0.75;entryDx=0;entryDy=0;" edge="1" parent="1" source="qTA8AELr05yfK3GaFoeh-181" target="qTA8AELr05yfK3GaFoeh-172">
          <mxGeometry width="50" height="50" relative="1" as="geometry">
            <mxPoint x="159" y="740" as="sourcePoint"/>
            <mxPoint x="292" y="420" as="targetPoint"/>
          </mxGeometry>
        </mxCell>
        <mxCell id="qTA8AELr05yfK3GaFoeh-181" value="Micro Op&lt;br&gt;Decode&lt;br&gt;/&lt;br&gt;Fetch&lt;br&gt;Operand" style="rounded=0;whiteSpace=wrap;html=1;" vertex="1" parent="1">
          <mxGeometry x="345" y="360" width="60" height="80" as="geometry"/>
        </mxCell>
        <mxCell id="qTA8AELr05yfK3GaFoeh-182" value="" style="endArrow=classicThin;html=1;strokeColor=#FF9933;strokeWidth=2;exitX=0.75;exitY=0;exitDx=0;exitDy=0;entryX=0.75;entryY=0;entryDx=0;entryDy=0;endSize=1;endFill=1;" edge="1" parent="1" source="qTA8AELr05yfK3GaFoeh-181" target="qTA8AELr05yfK3GaFoeh-175">
          <mxGeometry width="50" height="50" relative="1" as="geometry">
            <mxPoint x="415" y="397.5" as="sourcePoint"/>
            <mxPoint x="465" y="347.5" as="targetPoint"/>
            <Array as="points">
              <mxPoint x="390" y="340"/>
              <mxPoint x="415" y="340"/>
            </Array>
          </mxGeometry>
        </mxCell>
        <mxCell id="qTA8AELr05yfK3GaFoeh-183" value="" style="endArrow=classic;html=1;strokeColor=#FF9933;strokeWidth=2;endSize=1;entryX=0.25;entryY=0;entryDx=0;entryDy=0;exitX=1;exitY=0.5;exitDx=0;exitDy=0;" edge="1" parent="1" source="qTA8AELr05yfK3GaFoeh-175" target="qTA8AELr05yfK3GaFoeh-181">
          <mxGeometry width="50" height="50" relative="1" as="geometry">
            <mxPoint x="99" y="740" as="sourcePoint"/>
            <mxPoint x="149" y="690" as="targetPoint"/>
            <Array as="points">
              <mxPoint x="379" y="290"/>
              <mxPoint x="379" y="320"/>
              <mxPoint x="360" y="320"/>
            </Array>
          </mxGeometry>
        </mxCell>
        <mxCell id="qTA8AELr05yfK3GaFoeh-184" value="" style="endArrow=none;html=1;strokeColor=#CC0000;strokeWidth=3;entryX=1;entryY=0.25;entryDx=0;entryDy=0;exitX=0;exitY=0.25;exitDx=0;exitDy=0;endSize=6;endFill=0;startArrow=none;startFill=0;startSize=1;" edge="1" parent="1" source="qTA8AELr05yfK3GaFoeh-157" target="qTA8AELr05yfK3GaFoeh-181">
          <mxGeometry width="50" height="50" relative="1" as="geometry">
            <mxPoint x="39" y="740" as="sourcePoint"/>
            <mxPoint x="89" y="690" as="targetPoint"/>
            <Array as="points">
              <mxPoint x="390" y="563"/>
              <mxPoint x="390" y="520"/>
              <mxPoint x="450" y="520"/>
              <mxPoint x="450" y="380"/>
            </Array>
          </mxGeometry>
        </mxCell>
        <mxCell id="qTA8AELr05yfK3GaFoeh-185" value="Int&amp;nbsp;" style="rounded=0;whiteSpace=wrap;html=1;align=right;labelPosition=left;verticalLabelPosition=middle;verticalAlign=middle;strokeWidth=2;" vertex="1" parent="1">
          <mxGeometry x="510" y="397.5588235294117" width="90" height="30" as="geometry"/>
        </mxCell>
        <mxCell id="qTA8AELr05yfK3GaFoeh-186" value="" style="endArrow=none;html=1;exitX=0.338;exitY=0.997;exitDx=0;exitDy=0;exitPerimeter=0;entryX=0.342;entryY=0.003;entryDx=0;entryDy=0;entryPerimeter=0;strokeWidth=2;" edge="1" parent="1" source="qTA8AELr05yfK3GaFoeh-185" target="qTA8AELr05yfK3GaFoeh-185">
          <mxGeometry width="50" height="50" relative="1" as="geometry">
            <mxPoint x="-20" y="499.5588235294117" as="sourcePoint"/>
            <mxPoint x="381" y="319.5588235294117" as="targetPoint"/>
          </mxGeometry>
        </mxCell>
        <mxCell id="qTA8AELr05yfK3GaFoeh-187" value="" style="endArrow=none;html=1;exitX=0.668;exitY=1.01;exitDx=0;exitDy=0;exitPerimeter=0;entryX=0.672;entryY=-0.003;entryDx=0;entryDy=0;entryPerimeter=0;strokeWidth=2;" edge="1" parent="1" source="qTA8AELr05yfK3GaFoeh-185" target="qTA8AELr05yfK3GaFoeh-185">
          <mxGeometry width="50" height="50" relative="1" as="geometry">
            <mxPoint x="419.79999999999995" y="379.9388235294118" as="sourcePoint"/>
            <mxPoint x="420" y="319.5588235294117" as="targetPoint"/>
          </mxGeometry>
        </mxCell>
        <mxCell id="qTA8AELr05yfK3GaFoeh-188" value="" style="endArrow=none;dashed=1;html=1;strokeColor=#CC0000;strokeWidth=1;entryX=1;entryY=0.75;entryDx=0;entryDy=0;exitX=0;exitY=0.25;exitDx=0;exitDy=0;" edge="1" parent="1" source="qTA8AELr05yfK3GaFoeh-157" target="qTA8AELr05yfK3GaFoeh-181">
          <mxGeometry width="50" height="50" relative="1" as="geometry">
            <mxPoint x="59" y="740" as="sourcePoint"/>
            <mxPoint x="109" y="690" as="targetPoint"/>
            <Array as="points">
              <mxPoint x="390" y="563"/>
              <mxPoint x="390" y="520"/>
              <mxPoint x="430" y="520"/>
              <mxPoint x="430" y="420"/>
            </Array>
          </mxGeometry>
        </mxCell>
        <mxCell id="qTA8AELr05yfK3GaFoeh-189" value="" style="endArrow=classicThin;html=1;strokeColor=#999900;strokeWidth=2;endSize=1;startSize=1;endFill=1;entryX=0.25;entryY=0;entryDx=0;entryDy=0;exitX=0.5;exitY=0;exitDx=0;exitDy=0;" edge="1" parent="1" source="qTA8AELr05yfK3GaFoeh-140" target="qTA8AELr05yfK3GaFoeh-175">
          <mxGeometry width="50" height="50" relative="1" as="geometry">
            <mxPoint x="159" y="740" as="sourcePoint"/>
            <mxPoint x="209" y="690" as="targetPoint"/>
            <Array as="points">
              <mxPoint x="660" y="340"/>
              <mxPoint x="639" y="340"/>
              <mxPoint x="519" y="340"/>
              <mxPoint x="445" y="340"/>
            </Array>
          </mxGeometry>
        </mxCell>
        <mxCell id="qTA8AELr05yfK3GaFoeh-190" value="" style="endArrow=classicThin;html=1;strokeColor=#4D9900;strokeWidth=3;endFill=1;startSize=4;endSize=1;entryX=0;entryY=0.5;entryDx=0;entryDy=0;exitX=1;exitY=0.5;exitDx=0;exitDy=0;" edge="1" parent="1" source="qTA8AELr05yfK3GaFoeh-160" target="qTA8AELr05yfK3GaFoeh-140">
          <mxGeometry width="50" height="50" relative="1" as="geometry">
            <mxPoint x="129" y="740" as="sourcePoint"/>
            <mxPoint x="679" y="426.75" as="targetPoint"/>
            <Array as="points">
              <mxPoint x="620" y="571"/>
              <mxPoint x="620" y="494"/>
            </Array>
          </mxGeometry>
        </mxCell>
        <mxCell id="qTA8AELr05yfK3GaFoeh-191" value="" style="endArrow=none;html=1;strokeColor=#000000;strokeWidth=1;entryX=1;entryY=0.5;entryDx=0;entryDy=0;exitX=0;exitY=0.5;exitDx=0;exitDy=0;" edge="1" parent="1" source="qTA8AELr05yfK3GaFoeh-172" target="qTA8AELr05yfK3GaFoeh-172">
          <mxGeometry width="50" height="50" relative="1" as="geometry">
            <mxPoint x="29" y="740" as="sourcePoint"/>
            <mxPoint x="79" y="690" as="targetPoint"/>
          </mxGeometry>
        </mxCell>
        <mxCell id="qTA8AELr05yfK3GaFoeh-192" value="" style="endArrow=classic;html=1;strokeColor=#009999;entryX=0;entryY=0.75;entryDx=0;entryDy=0;exitX=0.25;exitY=1;exitDx=0;exitDy=0;strokeWidth=2;startSize=3;endSize=1;" edge="1" parent="1" source="qTA8AELr05yfK3GaFoeh-181" target="qTA8AELr05yfK3GaFoeh-141">
          <mxGeometry width="50" height="50" relative="1" as="geometry">
            <mxPoint x="69" y="770" as="sourcePoint"/>
            <mxPoint x="119" y="720" as="targetPoint"/>
            <Array as="points">
              <mxPoint x="360" y="490"/>
              <mxPoint x="279" y="490"/>
              <mxPoint x="279" y="673"/>
            </Array>
          </mxGeometry>
        </mxCell>
        <mxCell id="qTA8AELr05yfK3GaFoeh-193" value="" style="endArrow=classic;html=1;strokeColor=#009999;entryX=0.75;entryY=1;entryDx=0;entryDy=0;exitX=0;exitY=0.25;exitDx=0;exitDy=0;strokeWidth=2;startSize=3;endSize=1;" edge="1" parent="1" source="qTA8AELr05yfK3GaFoeh-141" target="qTA8AELr05yfK3GaFoeh-181">
          <mxGeometry width="50" height="50" relative="1" as="geometry">
            <mxPoint x="370" y="450" as="sourcePoint"/>
            <mxPoint x="341" y="682.5" as="targetPoint"/>
            <Array as="points">
              <mxPoint x="289" y="658"/>
              <mxPoint x="289" y="500"/>
              <mxPoint x="390" y="500"/>
            </Array>
          </mxGeometry>
        </mxCell>
        <mxCell id="qTA8AELr05yfK3GaFoeh-194" value="" style="endArrow=classic;html=1;strokeColor=#009999;entryX=1;entryY=0.5;entryDx=0;entryDy=0;exitX=0.5;exitY=1;exitDx=0;exitDy=0;strokeWidth=2;startSize=3;endSize=1;" edge="1" parent="1" source="qTA8AELr05yfK3GaFoeh-140" target="qTA8AELr05yfK3GaFoeh-141">
          <mxGeometry width="50" height="50" relative="1" as="geometry">
            <mxPoint x="690" y="627" as="sourcePoint"/>
            <mxPoint x="341" y="682.5" as="targetPoint"/>
            <Array as="points">
              <mxPoint x="660" y="665"/>
            </Array>
          </mxGeometry>
        </mxCell>
        <mxCell id="qTA8AELr05yfK3GaFoeh-195" value="" style="endArrow=classicThin;html=1;strokeColor=#4D9900;strokeWidth=3;endFill=1;startSize=4;endSize=1;exitX=1;exitY=0.5;exitDx=0;exitDy=0;entryX=0;entryY=0.5;entryDx=0;entryDy=0;" edge="1" parent="1" source="qTA8AELr05yfK3GaFoeh-140" target="qTA8AELr05yfK3GaFoeh-175">
          <mxGeometry width="50" height="50" relative="1" as="geometry">
            <mxPoint x="610" y="422.5588235294117" as="sourcePoint"/>
            <mxPoint x="660" y="503.5" as="targetPoint"/>
            <Array as="points">
              <mxPoint x="689" y="494"/>
              <mxPoint x="689" y="320"/>
              <mxPoint x="499" y="320"/>
              <mxPoint x="499" y="290"/>
            </Array>
          </mxGeometry>
        </mxCell>
      </root>
    </mxGraphModel>
  </diagram>
</mxfile>
